HIERARCHY
ROOT Hips
{
	OFFSET 0.000000 0.000000 0.000000
	CHANNELS 6 Xposition Yposition Zposition Xrotation Yrotation Zrotation
	JOINT LeftUpLeg_virtual
	{
		OFFSET 0.000000 0.000000 0.000000
		CHANNELS 3 Xrotation Yrotation Zrotation
		JOINT LeftUpLeg
		{
			OFFSET 15.427100 -6.655098 0.678600
			CHANNELS 3 Xrotation Yrotation Zrotation
			JOINT LeftLeg
			{
				OFFSET 4.081073 -39.591068 13.024000
				CHANNELS 3 Xrotation Yrotation Zrotation
				JOINT LeftFoot
				{
					OFFSET -4.081074 -37.707932 -15.979700
					CHANNELS 3 Xrotation Yrotation Zrotation
					JOINT LeftToeBase
					{
						OFFSET 5.346399 -15.068900 20.645000
						CHANNELS 3 Xrotation Yrotation Zrotation
						JOINT LeftToe_End
						{
							OFFSET 2.754700 0.931300 11.300900
							CHANNELS 3 Xrotation Yrotation Zrotation
							End Site
							{
								OFFSET 0 0 0
							}
						}
					}
				}
			}
		}
	}
	JOINT RightUpLeg_virtual
	{
		OFFSET 0.000000 0.000000 0.000000
		CHANNELS 3 Xrotation Yrotation Zrotation
		JOINT RightUpLeg
		{
			OFFSET -15.569500 -6.655098 0.678600
			CHANNELS 3 Xrotation Yrotation Zrotation
			JOINT RightLeg
			{
				OFFSET -4.081825 -39.591045 13.023800
				CHANNELS 3 Xrotation Yrotation Zrotation
				JOINT RightFoot
				{
					OFFSET 4.081824 -37.707954 -15.979600
					CHANNELS 3 Xrotation Yrotation Zrotation
					JOINT RightToeBase
					{
						OFFSET -5.346400 -15.068900 20.645000
						CHANNELS 3 Xrotation Yrotation Zrotation
						JOINT RightToe_End
						{
							OFFSET -2.754700 0.931300 11.300900
							CHANNELS 3 Xrotation Yrotation Zrotation
							End Site
							{
								OFFSET 0 0 0
							}
						}
					}
				}
			}
		}
	}
	JOINT Spine_virtual
	{
		OFFSET 0.000000 0.000000 0.000000
		CHANNELS 3 Xrotation Yrotation Zrotation
		JOINT Spine
		{
			OFFSET -0.279200 12.230698 -2.892100
			CHANNELS 3 Xrotation Yrotation Zrotation
			JOINT Spine1
			{
				OFFSET -0.232667 10.192268 -1.242267
				CHANNELS 3 Xrotation Yrotation Zrotation
				JOINT Spine1_split
				{
					OFFSET -0.232667 10.192268 -1.242267
					CHANNELS 3 Xrotation Yrotation Zrotation
					JOINT Spine2
					{
						OFFSET -0.232667 10.192268 -1.242267
						CHANNELS 3 Xrotation Yrotation Zrotation
						JOINT Neck_virtual
						{
							OFFSET 0.000000 0.000000 0.000000
							CHANNELS 3 Xrotation Yrotation Zrotation
							JOINT Neck
							{
								OFFSET -0.418800 17.814194 8.416900
								CHANNELS 3 Xrotation Yrotation Zrotation
								JOINT Head
								{
									OFFSET 0.000000 7.031097 3.806800
									CHANNELS 3 Xrotation Yrotation Zrotation
									JOINT HeadTop_End
									{
										OFFSET 0.000000 24.646606 12.978600
										CHANNELS 3 Xrotation Yrotation Zrotation
										End Site
										{
											OFFSET 0 0 0
										}
									}
								}
							}
						}
						JOINT LeftShoulder_virtual
						{
							OFFSET 0.000000 0.000000 0.000000
							CHANNELS 3 Xrotation Yrotation Zrotation
							JOINT LeftShoulder
							{
								OFFSET 8.476499 7.247704 -3.868750
								CHANNELS 3 Xrotation Yrotation Zrotation
								JOINT LeftShoulder_split
								{
									OFFSET 8.476499 7.247704 -3.868750
									CHANNELS 3 Xrotation Yrotation Zrotation
									JOINT LeftArm
									{
										OFFSET 9.308998 -2.777710 0.208600
										CHANNELS 3 Xrotation Yrotation Zrotation
										JOINT LeftForeArm
										{
											OFFSET 29.972298 0.000000 0.000000
											CHANNELS 3 Xrotation Yrotation Zrotation
											JOINT LeftHand
											{
												OFFSET 26.026505 0.000000 0.000000
												CHANNELS 3 Xrotation Yrotation Zrotation
												End Site
												{
													OFFSET 0 0 0
												}
											}
										}
									}
								}
							}
						}
						JOINT RightShoulder_virtual
						{
							OFFSET 0.000000 0.000000 0.000000
							CHANNELS 3 Xrotation Yrotation Zrotation
							JOINT RightShoulder
							{
								OFFSET -7.570500 7.247704 -3.868750
								CHANNELS 3 Xrotation Yrotation Zrotation
								JOINT RightShoulder_split
								{
									OFFSET -7.570500 7.247704 -3.868750
									CHANNELS 3 Xrotation Yrotation Zrotation
									JOINT RightArm
									{
										OFFSET -9.308998 -2.777710 0.208500
										CHANNELS 3 Xrotation Yrotation Zrotation
										JOINT RightForeArm
										{
											OFFSET -29.972300 0.000000 0.000000
											CHANNELS 3 Xrotation Yrotation Zrotation
											JOINT RightHand
											{
												OFFSET -26.026505 0.000000 0.000000
												CHANNELS 3 Xrotation Yrotation Zrotation
												End Site
												{
													OFFSET 0 0 0
												}
											}
										}
									}
								}
							}
						}
					}
				}
			}
		}
	}
}
MOTION
Frames: 8
Frame Time: 0.03333333
0.190718 75.645821 -2.955679 0.000000 0.000000 0.000000 -14.106242 4.441276 -0.223162 -18.293279 -3.901654 17.147105 56.014918 -1.853724 -0.410183 -22.838918 -0.429967 -14.110511 -0.000066 -0.000002 0.000001 0.000000 0.000000 0.000000 -14.106242 4.441276 -0.223162 -12.310997 -8.596147 -18.452642 55.363546 1.752798 0.303703 -27.403894 -5.066978 12.941173 -0.000085 0.000003 -0.000003 0.000000 0.000000 0.000000 -14.106242 4.441276 -0.223162 20.019218 0.036265 0.680778 6.967090 -0.338069 0.675294 0.000000 0.000000 0.000000 0.000000 0.000000 0.000000 6.967314 -0.337866 0.674353 -12.249458 -1.248218 -0.495995 -16.116726 -1.754206 -0.002254 0.000000 0.000000 0.000000 6.967314 -0.337866 0.674353 3.082220 -9.945117 -6.811322 0.000000 0.000000 0.000000 -13.959269 -7.908218 -60.295264 69.634318 -63.509046 71.597137 0.000000 0.000000 0.000000 6.967314 -0.337866 0.674353 8.709546 -2.418523 18.823139 0.000000 0.000000 0.000000 -21.494470 12.934328 56.855499 76.344153 65.516991 -70.724601 0.000000 0.000000 0.000000 
0.211853 75.631638 -2.958624 0.000000 0.000000 0.000000 -14.048423 4.487496 -0.254546 -18.430328 -3.868273 17.152989 56.065020 -1.969850 -0.403156 -22.834526 -0.408798 -14.014423 -0.000066 -0.000001 0.000001 0.000000 0.000000 0.000000 -14.048423 4.487496 -0.254546 -12.362522 -8.624401 -18.445426 55.365770 1.759094 0.304987 -27.401575 -5.087498 12.956580 -0.000085 0.000002 -0.000003 0.000000 0.000000 0.000000 -14.048423 4.487496 -0.254546 20.019249 0.037162 0.686043 6.967762 -0.333988 0.674075 0.000000 0.000000 0.000000 0.000000 0.000000 0.000000 6.967983 -0.333704 0.672075 -12.339808 -1.259015 -0.511593 -16.061072 -1.772782 0.024099 0.000000 0.000000 0.000000 6.967983 -0.333704 0.672075 3.081505 -9.932721 -6.899784 0.000000 0.000000 0.000000 -13.772136 -8.303073 -59.856602 69.210607 -63.491157 71.193719 0.000000 0.000000 0.000000 6.967983 -0.333704 0.672075 8.739785 -2.465332 18.929306 0.000000 0.000000 0.000000 -21.199621 13.256774 56.475583 76.163897 65.580348 -70.597348 0.000000 0.000000 0.000000 
0.250931 75.634033 -2.930887 0.000000 0.000000 0.000000 -14.043222 4.589870 -0.253402 -18.460543 -3.915629 17.095306 56.090634 -1.994744 -0.400608 -22.850215 -0.418085 -13.958515 -0.000066 -0.000001 0.000001 0.000000 0.000000 0.000000 -14.043222 4.589870 -0.253402 -12.292948 -8.703597 -18.492109 55.322545 1.759834 0.306324 -27.422180 -5.109554 13.005898 -0.000085 0.000003 -0.000003 0.000000 0.000000 0.000000 -14.043222 4.589870 -0.253402 20.021648 0.038114 0.685532 6.977813 -0.325597 0.664433 0.000000 0.000000 0.000000 0.000000 0.000000 0.000000 6.978043 -0.325379 0.661027 -12.616686 -1.310841 -0.527832 -15.787574 -1.817843 0.025407 0.000000 0.000000 0.000000 6.978043 -0.325379 0.661027 3.089948 -9.968822 -6.840616 0.000000 0.000000 0.000000 -13.142221 -9.459939 -58.568626 68.458453 -63.706240 70.544605 0.000000 0.000000 0.000000 6.978043 -0.325379 0.661027 8.761114 -2.565050 18.941639 0.000000 0.000000 0.000000 -20.443542 13.957702 55.550799 76.088785 65.933804 -70.542966 0.000000 0.000000 0.000000 
0.286014 75.682343 -2.866037 0.000000 0.000000 0.000000 -14.073490 4.760440 -0.229031 -18.379368 -4.039366 16.989607 56.033222 -1.965435 -0.398563 -22.853523 -0.436552 -13.935239 -0.000066 -0.000002 0.000001 0.000000 0.000000 0.000000 -14.073490 4.760440 -0.229031 -12.077216 -8.834218 -18.529053 55.184725 1.764218 0.307147 -27.454459 -5.188525 13.052136 -0.000085 0.000003 -0.000003 0.000000 0.000000 0.000000 -14.073490 4.760440 -0.229031 20.021318 0.054285 0.687242 6.979989 -0.290166 0.652439 0.000000 0.000000 0.000000 0.000000 0.000000 0.000000 6.980286 -0.290650 0.647076 -12.655371 -1.453473 -0.540543 -15.752950 -1.939057 -0.008744 0.000000 0.000000 0.000000 6.980286 -0.290650 0.647076 3.065994 -10.097436 -6.449462 0.000000 0.000000 0.000000 -11.567993 -11.730438 -55.979414 65.753166 -64.570436 67.822959 0.000000 0.000000 0.000000 6.980286 -0.290650 0.647076 8.764861 -2.748730 18.669178 0.000000 0.000000 0.000000 -18.578786 14.943810 53.540664 75.831362 67.486838 -70.381671 0.000000 0.000000 0.000000 
0.314058 75.901123 -2.773073 0.000000 0.000000 0.000000 -14.275024 5.029750 -0.220202 -17.968537 -4.179738 16.874551 55.682332 -1.937980 -0.389273 -22.738572 -0.468189 -13.884801 -0.000066 -0.000001 0.000001 0.000000 0.000000 0.000000 -14.275024 5.029750 -0.220202 -11.445222 -9.101403 -18.449280 54.691278 1.750664 0.304471 -27.372731 -5.325710 13.073009 -0.000085 0.000005 -0.000003 0.000000 0.000000 0.000000 -14.275024 5.029750 -0.220202 19.988492 0.084021 0.712504 6.936910 -0.235936 0.669644 0.000000 0.000000 0.000000 0.000000 0.000000 0.000000 6.937389 -0.235862 0.665620 -11.466846 -1.570873 -0.513835 -15.976743 -2.044570 -0.234301 0.000000 0.000000 0.000000 6.937389 -0.235862 0.665620 2.902701 -10.588567 -5.829102 0.000000 0.000000 0.000000 -8.209350 -14.344541 -51.118140 60.161385 -67.419882 62.302431 0.000000 0.000000 0.000000 6.937389 -0.235862 0.665620 8.526232 -2.817776 17.544560 0.000000 0.000000 0.000000 -14.887943 15.974359 49.852390 73.639999 71.996724 -68.447819 0.000000 0.000000 0.000000 
0.347745 76.347099 -2.649729 0.000000 0.000000 0.000000 -14.669773 5.409614 -0.236583 -17.143959 -4.368491 16.731349 54.946959 -1.887602 -0.372974 -22.468408 -0.488913 -13.803870 -0.000066 -0.000002 0.000001 0.000000 0.000000 0.000000 -14.669773 5.409614 -0.236583 -10.316138 -9.539101 -18.222226 53.716661 1.724387 0.297327 -27.110916 -5.524991 13.063455 -0.000085 0.000005 -0.000003 0.000000 0.000000 0.000000 -14.669773 5.409614 -0.236583 19.884303 0.103695 0.762056 6.762317 -0.208084 0.726399 0.000000 0.000000 0.000000 0.000000 0.000000 0.000000 6.762802 -0.207267 0.722387 -8.087585 -1.515193 -0.417978 -16.169500 -1.934590 -0.904638 0.000000 0.000000 0.000000 6.762802 -0.207267 0.722387 2.544758 -11.924331 -5.012376 0.000000 0.000000 0.000000 -2.210825 -15.470075 -43.103131 47.070525 -73.606927 48.903024 0.000000 0.000000 0.000000 6.762802 -0.207267 0.722387 7.952838 -2.678383 15.451570 0.000000 0.000000 0.000000 -8.812181 16.564512 44.063439 59.994087 80.820863 -55.277332 0.000000 0.000000 0.000000 
0.395715 76.967072 -2.520685 0.000000 0.000000 0.000000 -15.343009 5.762772 -0.143457 -15.816599 -4.467608 16.449507 53.846835 -1.826787 -0.352441 -22.065052 -0.445876 -13.665689 -0.000066 -0.000003 0.000001 0.000000 0.000000 0.000000 -15.343009 5.762772 -0.143457 -8.760787 -10.013165 -18.037321 52.415978 1.680147 0.285860 -26.695670 -5.684968 13.063064 -0.000085 0.000003 -0.000003 0.000000 0.000000 0.000000 -15.343009 5.762772 -0.143457 19.739177 0.066465 0.768425 6.523787 -0.266740 0.705519 0.000000 0.000000 0.000000 0.000000 0.000000 0.000000 6.524140 -0.265469 0.701688 -1.975886 -1.172918 -0.246146 -16.073944 -1.700064 -1.336792 0.000000 0.000000 0.000000 6.524140 -0.265469 0.701688 2.323322 -14.299135 -2.361532 0.000000 0.000000 0.000000 6.130126 -14.113488 -33.140781 11.653518 -80.877745 14.006774 0.000000 0.000000 0.000000 6.524140 -0.265469 0.701688 7.070592 -1.706414 12.722753 0.000000 0.000000 0.000000 -0.042600 15.921716 36.053406 -31.250376 84.370957 33.932988 0.000000 0.000000 0.000000 
0.468509 77.644302 -2.443455 0.000000 0.000000 0.000000 -16.117588 5.990364 -0.023664 -14.328472 -4.429747 16.153674 52.614351 -1.762432 -0.332904 -21.589328 -0.386312 -13.486495 -0.000066 -0.000003 0.000001 0.000000 0.000000 0.000000 -16.117588 5.990364 -0.023664 -7.154951 -10.412020 -17.872484 51.009775 1.632685 0.272463 -26.139346 -5.772846 13.067328 -0.000085 0.000003 -0.000003 0.000000 0.000000 0.000000 -16.117588 5.990364 -0.023664 19.613595 0.015110 0.787342 6.323404 -0.359375 0.710415 0.000000 0.000000 0.000000 0.000000 0.000000 0.000000 6.323559 -0.358357 0.704580 5.816115 -0.692038 -0.627370 -15.471133 -1.789207 -1.169800 0.000000 0.000000 0.000000 6.323559 -0.358357 0.704580 2.348029 -16.095872 -0.102431 0.000000 0.000000 0.000000 14.210579 -11.452614 -22.185359 -41.636461 -81.910388 -37.409899 0.000000 0.000000 0.000000 6.323559 -0.358357 0.704580 6.015280 -0.457007 8.798363 0.000000 0.000000 0.000000 6.243610 13.137237 28.857331 -60.331689 79.251511 59.538158 0.000000 0.000000 0.000000 
